<?xml version="1.0" encoding="utf-8"?>
<!-- Generator: Adobe Illustrator 25.0.1, SVG Export Plug-In . SVG Version: 6.00 Build 0)  -->
<svg version="1.1" xmlns="http://www.w3.org/2000/svg" xmlns:xlink="http://www.w3.org/1999/xlink" x="0px" y="0px"
	 viewBox="0 0 16 16" style="enable-background:new 0 0 16 16;" xml:space="preserve">
<style type="text/css">
	.st0{fill:#FFD451;}
	.st1{fill:#0046AE;}
	.st2{fill:#76D7FF;}
	.st3{fill:#35BEFF;}
	.st4{fill:#0798FF;}
	.st5{fill:#0072FF;}
	.st6{fill:#0059FF;}
	.st7{fill:#004AD7;}
	.st8{fill:#062A65;}
	.st9{fill:#AEE5FF;}
	.st10{fill:#D1F0FF;}
	.st11{fill:#EBF8FF;}
	.st12{fill:#C8C8C8;}
	.st13{fill:#B1B1B1;}
	.st14{fill:#919191;}
	.st15{fill:#757575;}
	.st16{fill:#666666;}
	.st17{fill:#555555;}
	.st18{fill:#4B4B4B;}
	.st19{fill:#2B2B2B;}
	.st20{fill:#DEDEDE;}
	.st21{fill:#E8E8E8;}
	.st22{fill:#F7F7F7;}
	.st23{fill:#EBC34B;}
	.st24{fill:#DEA61C;}
	.st25{fill:#C97E05;}
	.st26{fill:#B35E02;}
	.st27{fill:#A44906;}
	.st28{fill:#8C3A0B;}
	.st29{fill:#7D350D;}
	.st30{fill:#4D1B02;}
	.st31{fill:#FFD640;}
	.st32{fill:#FFE894;}
	.st33{fill:#FFF4C7;}
	.st34{fill:#77E030;}
	.st35{fill:#48C900;}
	.st36{fill:#27A800;}
	.st37{fill:#198900;}
	.st38{fill:#167700;}
	.st39{fill:#146300;}
	.st40{fill:#125700;}
	.st41{fill:#063400;}
	.st42{fill:#A8EB75;}
	.st43{fill:#D1F5B4;}
	.st44{fill:#EBFADC;}
	.st45{fill:#FFB3B3;}
	.st46{fill:#FF8F8F;}
	.st47{fill:#FF4F4F;}
	.st48{fill:#E80000;}
	.st49{fill:#CA0000;}
	.st50{fill:#AB0000;}
	.st51{fill:#990000;}
	.st52{fill:#5E0000;}
	.st53{fill:#FFD1D1;}
	.st54{fill:#FFE6E6;}
	.st55{fill:#FFF2F2;}
</style>
<g id="Layer_1">
</g>
<g id="Layer_2">
</g>
<g id="M">
</g>
<g id="I">
</g>
<g id="L">
</g>
<g id="W">
</g>
<g id="A">
</g>
<g id="U">
</g>
<g id="K">
</g>
<g id="E">
</g>
<g id="T">
</g>
<g id="P">
</g>
<g id="S">
</g>
<g id="favicon">
	<g>
		<path class="st0" d="M16.001244,15.393619V0.606382h-5.407413L8.108426,7.828921L5.693933,0.606382H0v14.787237h1.80719V2.413572
			h2.585392l3.072367,9.190538c0.28333,0.855934,0.489886,1.49634,0.619785,1.921336
			c0.147489-0.472178,0.377695-1.165709,0.690619-2.08071l3.107783-9.031164h2.310916v12.980047H16.001244z"/>
		<path class="st1" d="M1.80719,15.393619V2.413572h2.585392l3.072367,9.190538
			c0.28333,0.855934,0.489886,1.49634,0.619785,1.921336c0.147489-0.472178,0.377695-1.165709,0.690619-2.08071l3.107783-9.031164
			h2.310916v12.980047H12.53834V4.529698L8.7665,15.393619H7.217035L3.462904,4.343762v11.049856H1.80719z"/>
	</g>
</g>
</svg>
